<svg xmlns="http://www.w3.org/2000/svg" viewBox="0 0 1080 600" role="img" aria-labelledby="title desc">
  <title id="title">Postman MCP working example for Salesforce Headless 360</title>
  <desc id="desc">Postman shows an HTTP MCP request to a Salesforce custom MCP server, calling listRecentSObjectRecords for Account and receiving a connected JSON response.</desc>
  <rect width="1080" height="600" fill="#f7f7f7"/>
  <rect x="0" y="0" width="1080" height="28" fill="#ffffff" stroke="#e5e7eb"/>
  <text x="14" y="18" font-family="Arial, sans-serif" font-size="12" fill="#374151">Developers - Salesforce Developers</text>
  <rect x="405" y="2" width="287" height="20" rx="4" fill="#ffffff" stroke="#d1d5db"/>
  <text x="516" y="16" font-family="Arial, sans-serif" font-size="12" fill="#6b7280">Search</text>
  <rect x="0" y="28" width="117" height="565" fill="#f3f4f6" stroke="#e5e7eb"/>
  <text x="12" y="49" font-family="Arial, sans-serif" font-size="11" fill="#6b7280">History</text>
  <text x="10" y="151" font-family="Arial, sans-serif" font-size="12" fill="#374151">Account Engage...</text>
  <text x="10" y="190" font-family="Arial, sans-serif" font-size="12" fill="#374151">Platform APIs</text>
  <text x="10" y="215" font-family="Arial, sans-serif" font-size="12" fill="#374151">Platform Platform APIs</text>
  <text x="10" y="236" font-family="Arial, sans-serif" font-size="12" fill="#374151">Knowledge Hu...</text>
  <text x="10" y="256" font-family="Arial, sans-serif" font-size="12" fill="#374151">Force B2B/...</text>
  <text x="10" y="268" font-family="Arial, sans-serif" font-size="12" fill="#374151">Analytics Conne...</text>
  <text x="10" y="345" font-family="Arial, sans-serif" font-size="12" fill="#374151">Account Engagement</text>
  <text x="10" y="369" font-family="Arial, sans-serif" font-size="12" fill="#374151">Template Environ...</text>
  <text x="10" y="391" font-family="Arial, sans-serif" font-size="12" fill="#374151">Knowledge Hub...</text>
  <rect x="117" y="28" width="868" height="565" fill="#ffffff"/>
  <rect x="985" y="28" width="95" height="565" fill="#f7f7f7" stroke="#e5e7eb"/>
  <text x="1005" y="79" font-family="Arial, sans-serif" font-size="14" fill="#111827">Configuration</text>
  <text x="1006" y="101" font-family="Arial, sans-serif" font-size="11" font-weight="700" fill="#374151">MCP host</text>
  <text x="1006" y="118" font-family="Arial, sans-serif" font-size="11" fill="#6b7280">Select the host</text>
  <rect x="1006" y="136" width="92" height="22" rx="3" fill="#ffffff" stroke="#d1d5db"/>
  <text x="1016" y="151" font-family="Arial, sans-serif" font-size="11" fill="#374151">Postman Agent</text>
  <text x="1006" y="180" font-family="Arial, sans-serif" font-size="11" fill="#6b7280">Note: Use the</text>
  <text x="1006" y="214" font-family="Arial, sans-serif" font-size="11" fill="#6b7280">Agent Mode c...</text>
  <rect x="127" y="36" width="450" height="20" rx="3" fill="#fff7ed"/>
  <text x="129" y="47" font-family="Arial, sans-serif" font-size="9" fill="#8a5a00">POST</text>
  <text x="157" y="48" font-family="Arial, sans-serif" font-size="11" fill="#374151">Client Credentials Fl...</text>
  <rect x="429" y="28" width="151" height="30" fill="#fde7d7"/>
  <text x="437" y="47" font-family="Arial, sans-serif" font-size="11" fill="#111827">https://api.salesforce.co</text>
  <text x="127" y="77" font-family="Arial, sans-serif" font-size="13" font-weight="700" fill="#111827">https://api.salesforce.com/platform/mcp/v1/custom/ShivamTestMCP</text>
  <rect x="127" y="99" width="752" height="28" rx="4" fill="#ffffff" stroke="#d1d5db"/>
  <text x="139" y="117" font-family="Arial, sans-serif" font-size="12" fill="#6b7280">HTTP</text>
  <text x="191" y="117" font-family="Arial, sans-serif" font-size="12" fill="#4b5563">https://api.salesforce.com/platform/mcp/v1/custom/ShivamTestMCP</text>
  <rect x="912" y="98" width="65" height="28" rx="4" fill="#2f80ed"/>
  <text x="937" y="117" font-family="Arial, sans-serif" font-size="13" font-weight="700" fill="#ffffff">Run</text>
  <text x="130" y="147" font-family="Arial, sans-serif" font-size="12" fill="#6b7280">Docs</text>
  <rect x="181" y="134" width="56" height="22" rx="3" fill="#f3f4f6"/>
  <text x="189" y="148" font-family="Arial, sans-serif" font-size="12" fill="#111827">Message</text>
  <text x="246" y="147" font-family="Arial, sans-serif" font-size="12" fill="#6b7280">Authorization</text>
  <circle cx="323" cy="144" r="2" fill="#22c55e"/>
  <text x="337" y="147" font-family="Arial, sans-serif" font-size="12" fill="#6b7280">Headers</text>
  <text x="397" y="147" font-family="Arial, sans-serif" font-size="12" fill="#6b7280">Settings</text>
  <rect x="127" y="162" width="858" height="148" fill="#ffffff" stroke="#e5e7eb"/>
  <rect x="127" y="162" width="365" height="148" fill="#ffffff"/>
  <text x="129" y="177" font-family="Arial, sans-serif" font-size="12" font-weight="700" fill="#111827">Tools</text>
  <text x="171" y="177" font-family="Arial, sans-serif" font-size="12" fill="#6b7280">Prompts</text>
  <text x="230" y="177" font-family="Arial, sans-serif" font-size="12" fill="#6b7280">Resources</text>
  <text x="157" y="196" font-family="Arial, sans-serif" font-size="12" font-weight="700" fill="#111827">2. listRecentSObjectRecords</text>
  <text x="157" y="215" font-family="Arial, sans-serif" font-size="11" fill="#6b7280">Path parameter: subject-name</text>
  <rect x="164" y="224" width="308" height="30" rx="4" fill="#ffffff" stroke="#c9c9c9"/>
  <text x="181" y="244" font-family="Arial, sans-serif" font-size="12" fill="#111827">Account</text>
  <text x="157" y="273" font-family="Arial, sans-serif" font-size="12" font-weight="700" fill="#111827">3. soqlQuery</text>
  <text x="157" y="294" font-family="Arial, sans-serif" font-size="11" fill="#374151">Executes a SOQL query to retrieve Salesforce records.</text>
  <rect x="493" y="162" width="492" height="148" fill="#ffffff"/>
  <g font-family="Consolas, 'Courier New', monospace" font-size="12">
    <text x="507" y="174" fill="#9ca3af">1</text>
    <text x="543" y="174" fill="#8b0000">{</text>
    <text x="507" y="192" fill="#9ca3af">2</text>
    <text x="543" y="192" fill="#8b0000">"method"</text><text x="608" y="192" fill="#111827">: </text><text x="621" y="192" fill="#005cc5">"tools/call"</text><text x="692" y="192" fill="#111827">,</text>
    <text x="507" y="210" fill="#9ca3af">3</text>
    <text x="543" y="210" fill="#8b0000">"params"</text><text x="598" y="210" fill="#111827">: {</text>
    <text x="507" y="228" fill="#9ca3af">4</text>
    <text x="577" y="228" fill="#8b0000">"name"</text><text x="621" y="228" fill="#111827">: </text><text x="635" y="228" fill="#005cc5">"listRecentSObjectRecordsplatform_sobject_all"</text><text x="912" y="228" fill="#111827">,</text>
    <text x="507" y="246" fill="#9ca3af">5</text>
    <text x="577" y="246" fill="#8b0000">"arguments"</text><text x="651" y="246" fill="#111827">: {</text>
    <text x="507" y="264" fill="#9ca3af">6</text>
    <text x="609" y="264" fill="#8b0000">"subject-name"</text><text x="706" y="264" fill="#111827">: </text><text x="720" y="264" fill="#005cc5">"Account"</text>
    <text x="507" y="282" fill="#9ca3af">7</text>
    <text x="577" y="282" fill="#111827">}</text>
    <text x="507" y="300" fill="#9ca3af">8</text>
    <text x="543" y="300" fill="#111827">}</text>
  </g>
  <rect x="127" y="313" width="858" height="280" fill="#ffffff" stroke="#e5e7eb"/>
  <text x="131" y="330" font-family="Arial, sans-serif" font-size="12" fill="#111827">Response</text>
  <text x="194" y="330" font-family="Arial, sans-serif" font-size="12" fill="#6b7280">Notifications</text>
  <circle cx="890" cy="325" r="3" fill="#22c55e"/>
  <text x="902" y="330" font-family="Arial, sans-serif" font-size="12" fill="#374151">Connected</text>
  <rect x="128" y="341" width="109" height="24" rx="3" fill="#ffffff" stroke="#d1d5db"/>
  <text x="140" y="357" font-family="Arial, sans-serif" font-size="12" fill="#9ca3af">Search</text>
  <text x="250" y="356" font-family="Arial, sans-serif" font-size="12" fill="#6b7280">All messages</text>
  <rect x="127" y="374" width="240" height="21" rx="3" fill="#e5e7eb"/>
  <text x="164" y="389" font-family="Arial, sans-serif" font-size="12" fill="#374151">tools / listRece...</text>
  <text x="272" y="389" font-family="Arial, sans-serif" font-size="12" fill="#6b7280">05:48:18.041</text>
  <text x="164" y="416" font-family="Arial, sans-serif" font-size="12" fill="#374151">tools / call</text>
  <text x="272" y="416" font-family="Arial, sans-serif" font-size="12" fill="#6b7280">05:48:16.467</text>
  <text x="164" y="443" font-family="Arial, sans-serif" font-size="12" fill="#374151">tools / listRece...</text>
  <text x="272" y="443" font-family="Arial, sans-serif" font-size="12" fill="#6b7280">05:47:52.570</text>
  <text x="164" y="470" font-family="Arial, sans-serif" font-size="12" fill="#374151">tools / call</text>
  <text x="272" y="470" font-family="Arial, sans-serif" font-size="12" fill="#6b7280">05:47:46.445</text>
  <text x="164" y="497" font-family="Arial, sans-serif" font-size="12" fill="#374151">tools / find</text>
  <text x="272" y="497" font-family="Arial, sans-serif" font-size="12" fill="#6b7280">05:46:33.944</text>
  <rect x="386" y="346" width="599" height="247" fill="#ffffff"/>
  <rect x="389" y="348" width="55" height="23" rx="3" fill="#f3f4f6"/>
  <text x="409" y="363" font-family="Arial, sans-serif" font-size="11" fill="#111827">JSON</text>
  <text x="475" y="363" font-family="Arial, sans-serif" font-size="12" fill="#6b7280">Preview</text>
  <g font-family="Consolas, 'Courier New', monospace" font-size="12">
    <text x="397" y="390" fill="#0284c7">14</text>
    <text x="543" y="390" fill="#8b0000">"attributes"</text><text x="629" y="390" fill="#111827">: {</text>
    <text x="397" y="408" fill="#0284c7">15</text>
    <text x="560" y="408" fill="#8b0000">"type"</text><text x="604" y="408" fill="#111827">: </text><text x="618" y="408" fill="#005cc5">"Account"</text><text x="675" y="408" fill="#111827">,</text>
    <text x="397" y="426" fill="#0284c7">16</text>
    <text x="560" y="426" fill="#8b0000">"url"</text><text x="595" y="426" fill="#111827">: </text><text x="609" y="426" fill="#005cc5">"/services/data/v64.0/sobjects/Account/001NS0002f0CNWYA2"</text>
    <text x="397" y="444" fill="#0284c7">17</text>
    <text x="543" y="444" fill="#111827">},</text>
    <text x="397" y="480" fill="#0284c7">18</text>
    <text x="512" y="480" fill="#8b0000">"Id"</text><text x="543" y="480" fill="#111827">: </text><text x="557" y="480" fill="#005cc5">"001NS0002f0CNWYA2"</text><text x="704" y="480" fill="#111827">,</text>
    <text x="397" y="498" fill="#0284c7">19</text>
    <text x="512" y="498" fill="#8b0000">"Name"</text><text x="560" y="498" fill="#111827">: </text><text x="574" y="498" fill="#005cc5">"Shivam Gupta Pvt Ltd"</text>
    <text x="397" y="534" fill="#0284c7">22</text>
    <text x="512" y="534" fill="#8b0000">"objectDescribe"</text><text x="624" y="534" fill="#111827">: {</text>
    <text x="397" y="552" fill="#0284c7">23</text>
    <text x="543" y="552" fill="#8b0000">"mruEnabled"</text><text x="632" y="552" fill="#111827">: </text><text x="650" y="552" fill="#005cc5">true</text><text x="681" y="552" fill="#111827">,</text>
    <text x="397" y="570" fill="#0284c7">24</text>
    <text x="543" y="570" fill="#8b0000">"updateable"</text><text x="632" y="570" fill="#111827">: </text><text x="650" y="570" fill="#005cc5">true</text>
  </g>
  <rect x="0" y="593" width="1080" height="7" fill="#e5e7eb"/>
</svg>
