<svg xmlns="http://www.w3.org/2000/svg" width="1400" height="860" viewBox="0 0 1400 860" role="img" aria-labelledby="title desc">
  <title>Einstein Trust Layer Controls</title>
  <desc>Secure retrieval, masking, zero-retention routing, scoring, and audit form the security backbone.</desc>
  <defs>
    <linearGradient id="bg" x1="0%" x2="100%" y1="0%" y2="100%">
      <stop offset="0%" stop-color="#111827"/>
      <stop offset="100%" stop-color="#1d4ed8"/>
    </linearGradient>
    <linearGradient id="panel" x1="0%" x2="100%" y1="0%" y2="100%">
      <stop offset="0%" stop-color="#ffffff" stop-opacity="0.99"/>
      <stop offset="100%" stop-color="#eff6ff" stop-opacity="0.98"/>
    </linearGradient>
    <filter id="shadow" x="-20%" y="-20%" width="140%" height="140%">
      <feDropShadow dx="0" dy="18" stdDeviation="18" flood-color="#0f172a" flood-opacity="0.18"/>
    </filter>
    <marker id="arrow" markerWidth="12" markerHeight="12" refX="9" refY="6" orient="auto">
      <path d="M0,0 L12,6 L0,12 z" fill="#bfdbfe"/>
    </marker>
  </defs>
  <rect width="1400" height="860" rx="34" fill="#f8fafc"/>
  <rect x="26" y="26" width="1348" height="808" rx="30" fill="url(#bg)"/>
  <rect x="50" y="150" width="1300" height="626" rx="36" fill="rgba(255,255,255,0.08)" stroke="rgba(255,255,255,0.18)"/>
  <text x="78" y="92" font-family="'Merriweather', serif" font-size="42" fill="#ffffff" font-weight="700">Einstein Trust Layer Controls</text>
  <text x="78" y="132" font-family="'Source Sans 3', sans-serif" font-size="24" fill="#bfdbfe">Secure retrieval, masking, zero-retention routing, scoring, and audit form the security backbone.</text>
  <path d="M414 292 H544" stroke="#bfdbfe" stroke-width="10" stroke-linecap="round" marker-end="url(#arrow)"/>
  <path d="M854 292 H984" stroke="#bfdbfe" stroke-width="10" stroke-linecap="round" marker-end="url(#arrow)"/>
  <path d="M700 376 V516" stroke="#bfdbfe" stroke-width="10" stroke-linecap="round" marker-end="url(#arrow)"/>
  <path d="M414 610 H544" stroke="#bfdbfe" stroke-width="10" stroke-linecap="round" marker-end="url(#arrow)"/>
  <path d="M854 610 H984" stroke="#bfdbfe" stroke-width="10" stroke-linecap="round" marker-end="url(#arrow)"/>
  <g>
    <rect x="104" y="198" width="312" height="176" rx="28" fill="url(#panel)" stroke="rgba(15,23,42,0.08)" filter="url(#shadow)"/>
    <rect x="122" y="216" width="276" height="140" rx="22" fill="rgba(255,255,255,0.56)" stroke="rgba(255,255,255,0.5)"/>
    <circle cx="146" cy="238" r="20" fill="#111827"/>
    <text x="140" y="244" font-family="'IBM Plex Mono', monospace" font-size="16" fill="#ffffff" font-weight="700">1</text>
    <text x="188" y="276" font-family="'Source Sans 3', sans-serif" font-size="31" fill="#0f172a" font-weight="700">Input</text>
    <text x="188" y="318" font-family="'Source Sans 3', sans-serif" font-size="22" fill="#475569"><tspan x="188" dy="0">Prompt and user context</tspan></text>
  </g>
  <g>
    <rect x="544" y="198" width="312" height="176" rx="28" fill="url(#panel)" stroke="rgba(15,23,42,0.08)" filter="url(#shadow)"/>
    <rect x="562" y="216" width="276" height="140" rx="22" fill="rgba(255,255,255,0.56)" stroke="rgba(255,255,255,0.5)"/>
    <circle cx="586" cy="238" r="20" fill="#111827"/>
    <text x="580" y="244" font-family="'IBM Plex Mono', monospace" font-size="16" fill="#ffffff" font-weight="700">2</text>
    <text x="628" y="276" font-family="'Source Sans 3', sans-serif" font-size="31" fill="#0f172a" font-weight="700">Grounding</text>
    <text x="628" y="318" font-family="'Source Sans 3', sans-serif" font-size="22" fill="#475569"><tspan x="628" dy="0">Retrieve trusted CRM</tspan><tspan x="628" dy="28">data</tspan></text>
  </g>
  <g>
    <rect x="984" y="198" width="312" height="176" rx="28" fill="url(#panel)" stroke="rgba(15,23,42,0.08)" filter="url(#shadow)"/>
    <rect x="1002" y="216" width="276" height="140" rx="22" fill="rgba(255,255,255,0.56)" stroke="rgba(255,255,255,0.5)"/>
    <circle cx="1026" cy="238" r="20" fill="#111827"/>
    <text x="1020" y="244" font-family="'IBM Plex Mono', monospace" font-size="16" fill="#ffffff" font-weight="700">3</text>
    <text x="1068" y="276" font-family="'Source Sans 3', sans-serif" font-size="31" fill="#0f172a" font-weight="700">Masking</text>
    <text x="1068" y="318" font-family="'Source Sans 3', sans-serif" font-size="22" fill="#475569"><tspan x="1068" dy="0">Protect PII and PCI</tspan><tspan x="1068" dy="28">data</tspan></text>
  </g>
  <g>
    <rect x="104" y="516" width="312" height="176" rx="28" fill="url(#panel)" stroke="rgba(15,23,42,0.08)" filter="url(#shadow)"/>
    <rect x="122" y="534" width="276" height="140" rx="22" fill="rgba(255,255,255,0.56)" stroke="rgba(255,255,255,0.5)"/>
    <circle cx="146" cy="556" r="20" fill="#111827"/>
    <text x="140" y="562" font-family="'IBM Plex Mono', monospace" font-size="16" fill="#ffffff" font-weight="700">4</text>
    <text x="188" y="594" font-family="'Source Sans 3', sans-serif" font-size="31" fill="#0f172a" font-weight="700">LLM Gateway</text>
    <text x="188" y="636" font-family="'Source Sans 3', sans-serif" font-size="22" fill="#475569"><tspan x="188" dy="0">Zero data retention</tspan><tspan x="188" dy="28">path</tspan></text>
  </g>
  <g>
    <rect x="544" y="516" width="312" height="176" rx="28" fill="url(#panel)" stroke="rgba(15,23,42,0.08)" filter="url(#shadow)"/>
    <rect x="562" y="534" width="276" height="140" rx="22" fill="rgba(255,255,255,0.56)" stroke="rgba(255,255,255,0.5)"/>
    <circle cx="586" cy="556" r="20" fill="#111827"/>
    <text x="580" y="562" font-family="'IBM Plex Mono', monospace" font-size="16" fill="#ffffff" font-weight="700">5</text>
    <text x="628" y="594" font-family="'Source Sans 3', sans-serif" font-size="31" fill="#0f172a" font-weight="700">Scoring</text>
    <text x="628" y="636" font-family="'Source Sans 3', sans-serif" font-size="22" fill="#475569"><tspan x="628" dy="0">Toxicity and safety</tspan><tspan x="628" dy="28">checks</tspan></text>
  </g>
  <g>
    <rect x="984" y="516" width="312" height="176" rx="28" fill="url(#panel)" stroke="rgba(15,23,42,0.08)" filter="url(#shadow)"/>
    <rect x="1002" y="534" width="276" height="140" rx="22" fill="rgba(255,255,255,0.56)" stroke="rgba(255,255,255,0.5)"/>
    <circle cx="1026" cy="556" r="20" fill="#111827"/>
    <text x="1020" y="562" font-family="'IBM Plex Mono', monospace" font-size="16" fill="#ffffff" font-weight="700">6</text>
    <text x="1068" y="594" font-family="'Source Sans 3', sans-serif" font-size="31" fill="#0f172a" font-weight="700">Audit Trail</text>
    <text x="1068" y="636" font-family="'Source Sans 3', sans-serif" font-size="22" fill="#475569"><tspan x="1068" dy="0">Logs, feedback, review</tspan></text>
  </g>
</svg>
